HIERARCHY
ROOT Hips
{
	OFFSET 0.00000 0.00000 0.00000
	CHANNELS 6 Xposition Yposition Zposition Zrotation Yrotation Xrotation 
	JOINT LHipJoint
	{
		OFFSET 0 0 0
		CHANNELS 3 Zrotation Yrotation Xrotation
		JOINT LeftHip
		{
			OFFSET 1.53139 -1.83434 0.76626
			CHANNELS 3 Zrotation Yrotation Xrotation
			JOINT LeftKnee
			{
				OFFSET 2.56112 -7.03663 0.00000
				CHANNELS 3 Zrotation Yrotation Xrotation
				JOINT LeftAnkle
				{
					OFFSET 2.59983 -7.14299 0.00000
					CHANNELS 3 Zrotation Yrotation Xrotation
					JOINT LeftToe
					{
						OFFSET 0.13742 -0.37757 2.00054
						CHANNELS 3 Zrotation Yrotation Xrotation
						End Site
						{
							OFFSET 0.00000 -0.00000 1.02897
						}
					}
				}
			}
		}
	}
	JOINT RHipJoint
	{
		OFFSET 0 0 0
		CHANNELS 3 Zrotation Yrotation Xrotation
		JOINT RightHip
		{
			OFFSET -1.40122 -1.83435 0.76627
			CHANNELS 3 Zrotation Yrotation Xrotation
			JOINT RightKnee
			{
				OFFSET -2.54052 -6.98003 0.00000
				CHANNELS 3 Zrotation Yrotation Xrotation
				JOINT RightAnkle
				{
					OFFSET -2.63179 -7.23079 0.00000
					CHANNELS 3 Zrotation Yrotation Xrotation
					JOINT RightToe
					{
						OFFSET -0.24131 -0.66299 2.03908
						CHANNELS 3 Zrotation Yrotation Xrotation
						End Site
						{
							OFFSET -0.00000 -0.00000 1.07391
						}
					}
				}
			}
		}
	}
	JOINT lowerback
	{
		OFFSET 0 0 0
		CHANNELS 3 Zrotation Yrotation Xrotation
		JOINT Chest
		{
			OFFSET 0.01174 2.10302 -0.29778
			CHANNELS 3 Zrotation Yrotation Xrotation
			JOINT Chest2
			{
				OFFSET 0.00772 2.13227 -0.01247
				CHANNELS 3 Zrotation Yrotation Xrotation
				JOINT lowerneck
				{
					OFFSET 0 0 0
					CHANNELS 3 Zrotation Yrotation Xrotation
					JOINT Neck
					{
						OFFSET -0.09219 1.60848 0.31481
						CHANNELS 3 Zrotation Yrotation Xrotation
						JOINT Head
						{
							OFFSET 0.13974 1.65456 -0.31134
							CHANNELS 3 Zrotation Yrotation Xrotation
							End Site
							{
								OFFSET 0.04742 1.69515 -0.14578
							}
						}
					}
				}
				JOINT LeftCollar
				{
					OFFSET 0 0 0
					CHANNELS 3 Zrotation Yrotation Xrotation
					JOINT LeftShoulder
					{
						OFFSET 3.24909 1.02882 -0.23993
CHANNELS 3 Zrotation Xrotation Yrotation
						JOINT LeftElbow
						{
OFFSET 0 -5.329550 -0.000000
CHANNELS 3 Zrotation Xrotation Yrotation
							JOINT LeftWrist
							{
OFFSET 0 -3.692320 -0.000000
CHANNELS 3 Zrotation Xrotation Yrotation
								JOINT lhand
								{
									OFFSET 0 0 0
CHANNELS 3 Zrotation Xrotation Yrotation
									JOINT LFingers
									{
OFFSET 0 -0.536600 -0.000000
CHANNELS 3 Zrotation Xrotation Yrotation
										End Site
										{
OFFSET 0 -0.432620 -0.000000
										}
									}
								}
								JOINT LThumb
								{
OFFSET 0 0.000000 0.000000
CHANNELS 3 Zrotation Xrotation Yrotation
									End Site
									{
OFFSET 0 -0.439220 0.439220
									}
								}
							}
						}
					}
				}
				JOINT RightCollar
				{
					OFFSET 0 0 0
					CHANNELS 3 Zrotation Yrotation Xrotation
					JOINT RightShoulder
					{
						OFFSET -3.21387 0.93002 -0.34594
CHANNELS 3 Zrotation Xrotation Yrotation
						JOINT RightElbow
						{
OFFSET 0 -5.234310 0.000000
CHANNELS 3 Zrotation Xrotation Yrotation
							JOINT RightWrist
							{
OFFSET 0 -3.553010 -0.000000
CHANNELS 3 Zrotation Xrotation Yrotation
								JOINT rhand
								{
									OFFSET 0 0 0
CHANNELS 3 Zrotation Xrotation Yrotation
									JOINT RFingers
									{
OFFSET 0 -0.772520 -0.000000
CHANNELS 3 Zrotation Xrotation Yrotation
										End Site
										{
OFFSET 0 -0.622830 -0.000000
										}
									}
								}
								JOINT RThumb
								{
OFFSET 0 0.000000 0.000000
CHANNELS 3 Zrotation Xrotation Yrotation
									End Site
									{
OFFSET 0 -0.632340 0.632340
									}
								}
							}
						}
					}
				}
			}
		}
	}
}
MOTION
Frames: 6
Frame Time: 0.008333333333333333
8.239439 17.772388 4.249412 184.256446 4.138804 -183.813925 0.000000 0.000000 0.000000 -13.514997 -10.962160 -21.150108 2.728132 10.241273 29.761769 -0.365976 -10.794997 5.858932 0.270912 -3.346072 -9.243900 0.000000 0.000000 0.000000 22.960144 -10.387473 13.170480 -1.383863 -7.443305 21.035640 -0.440202 -1.075042 -12.968356 -0.966187 6.258181 -17.535275 3.825100 1.744583 13.120022 0.804575 3.087836 0.839674 -1.876978 1.478512 -6.318637 -12.824403 -3.426137 -17.489021 7.769856 -6.641516 34.399192 4.073226 -4.413334 15.791777 0.000000 0.000000 0.000000 4.034857 3.533450 -13.763469 13.764304 -22.396768 2.737622 19.718694 16.415174 -25.635530 0.000000 0.000000 0.000000 -7.125000 0.000000 0.000000 -11.025367 56.650141 3.175344 0.000000 0.000000 0.000000 -3.796350 -2.380944 16.514004 -21.126664 -31.975874 -6.116864 -15.339732 2.167653 -6.540978 0.000000 0.000000 0.000000 7.125000 0.000000 0.000000 8.393030 23.215460 4.451240
8.236348 17.747952 4.403380 183.939254 4.338834 -184.096496 0.000000 0.000000 0.000000 -13.671073 -11.426144 -21.178237 2.742976 10.266885 29.845297 -0.374173 -10.873831 5.628783 0.429667 -4.203418 -11.650246 0.000000 0.000000 0.000000 22.626502 -10.530076 13.176497 -1.334880 -7.315914 20.654760 -0.498678 -1.122776 -13.791025 -1.013071 6.404011 -17.961147 3.515277 1.786366 13.531079 0.720999 3.116669 0.956395 -1.812159 1.502590 -6.433404 -12.790469 -3.415851 -17.384732 7.832225 -6.688662 34.361682 4.084892 -4.425392 15.756128 0.000000 0.000000 0.000000 3.840848 3.609674 -13.095782 13.723827 -22.338568 2.722286 19.750003 16.707242 -25.662255 0.000000 0.000000 0.000000 -7.125000 0.000000 0.000000 -11.005613 56.683588 3.178587 0.000000 0.000000 0.000000 -3.983528 -2.697704 16.957830 -21.394469 -32.285867 -6.259265 -15.119077 2.446725 -6.028512 0.000000 0.000000 0.000000 7.125000 0.000000 0.000000 8.577968 23.747389 4.445392
8.231105 17.727070 4.549893 183.608010 4.600309 -184.342331 0.000000 0.000000 0.000000 -13.836413 -11.872689 -21.114369 2.740408 10.262433 29.830740 -0.376841 -10.890209 5.473771 0.573532 -4.848931 -13.478475 0.000000 0.000000 0.000000 22.260463 -10.559594 13.148601 -1.300233 -7.223999 20.380839 -0.568933 -1.057255 -14.666229 -0.950694 6.200734 -17.370486 3.180517 1.823108 13.810686 0.638850 3.128085 1.114612 -1.721903 1.522996 -6.432852 -12.620483 -3.369290 -17.298501 7.783019 -6.633812 34.204040 4.041678 -4.376525 15.639858 0.000000 0.000000 0.000000 3.647988 3.713006 -12.625607 13.797199 -22.444063 2.750244 19.540943 16.605928 -25.898120 0.000000 0.000000 0.000000 -7.125000 0.000000 0.000000 -11.342592 56.876486 3.330651 0.000000 0.000000 0.000000 -4.129022 -3.127726 17.249350 -21.519458 -32.429610 -6.326175 -15.029651 2.500354 -6.334600 0.000000 0.000000 0.000000 7.125000 0.000000 0.000000 8.629631 23.436946 4.535165
8.228999 17.713604 4.689894 183.429060 5.026972 -184.578057 0.000000 0.000000 0.000000 -13.774993 -12.239213 -21.003307 2.735267 10.253570 29.801833 -0.365528 -10.733803 5.439570 0.646098 -5.141385 -14.312320 0.000000 0.000000 0.000000 22.135615 -10.302857 13.170797 -1.274553 -7.155194 20.175855 -0.655705 -0.915671 -15.651224 -0.636304 5.070777 -14.116900 2.914359 1.899259 14.038928 0.650807 3.208615 1.291962 -1.581092 1.579111 -6.382067 -12.604329 -3.330264 -17.297681 7.789802 -6.552215 34.099614 4.055978 -4.329627 15.576244 0.000000 0.000000 0.000000 3.415034 3.853009 -12.344625 13.890492 -22.577922 2.785922 19.407032 16.243556 -25.903887 0.000000 0.000000 0.000000 -7.125000 0.000000 0.000000 -11.486587 56.853879 3.367448 0.000000 0.000000 0.000000 -4.263543 -3.619766 17.284154 -21.612900 -32.536772 -6.376401 -14.953860 2.807967 -6.415194 0.000000 0.000000 0.000000 7.125000 0.000000 0.000000 8.681656 23.357015 4.579134
8.224266 17.708053 4.820453 183.270725 5.358978 -184.890020 0.000000 0.000000 0.000000 -13.749807 -12.677373 -20.778103 2.750811 10.280297 29.889241 -0.363831 -10.688038 5.214886 0.713183 -5.393258 -15.034566 0.000000 0.000000 0.000000 21.986675 -10.216971 13.187325 -1.255444 -7.103273 20.021814 -0.742930 -0.660922 -16.536690 -0.342635 3.761306 -10.405985 2.718461 1.927168 14.310749 0.659194 3.236822 1.435961 -1.476764 1.605485 -6.389505 -12.732267 -3.291925 -17.264809 7.963620 -6.547514 34.125534 4.155356 -4.331167 15.592724 0.000000 0.000000 0.000000 3.189324 4.164491 -12.081997 13.977936 -22.703112 2.819592 19.272690 15.941508 -25.917505 0.000000 0.000000 0.000000 -7.125000 0.000000 0.000000 -11.634820 56.839103 3.407638 0.000000 0.000000 0.000000 -4.360249 -4.033445 17.217747 -21.653953 -32.583760 -6.398473 -14.838745 3.267236 -6.260345 0.000000 0.000000 0.000000 7.125000 0.000000 0.000000 8.773480 23.518993 4.595611
8.212504 17.705299 4.942603 183.118546 5.591875 -185.220250 0.000000 0.000000 0.000000 -13.827493 -13.057694 -20.515869 2.802761 10.368487 30.178643 -0.385121 -10.943006 4.758943 0.836040 -5.831759 -16.297251 0.000000 0.000000 0.000000 21.789870 -10.264621 13.151645 -1.242686 -7.068511 19.918499 -0.772091 -0.660029 -16.854609 -0.424063 4.138905 -11.473807 2.609831 1.882301 14.541878 0.640278 3.177663 1.568999 -1.431894 1.586207 -6.382899 -12.784296 -3.205132 -17.315106 8.099210 -6.519686 34.324101 4.231203 -4.332842 15.703451 0.000000 0.000000 0.000000 3.009901 4.521386 -11.934341 14.044239 -22.797858 2.845195 18.667614 15.225115 -26.177177 0.000000 0.000000 0.000000 -7.125000 0.000000 0.000000 -12.406218 56.969496 3.680068 0.000000 0.000000 0.000000 -4.408082 -4.397476 17.124730 -21.652289 -32.581802 -6.397600 -14.705103 3.578990 -6.305123 0.000000 0.000000 0.000000 7.125000 0.000000 0.000000 8.869540 23.477480 4.655845
